<?xml version="1.0" encoding="UTF-8"?>
<svg id="Layer_1" xmlns="http://www.w3.org/2000/svg" version="1.1" viewBox="0 0 31.9 32">
  <!-- Generator: Adobe Illustrator 29.1.0, SVG Export Plug-In . SVG Version: 2.1.0 Build 142)  -->
  <defs>
    <style>
      .st0 {
        fill: #fff;
      }
    </style>
  </defs>
  <rect x="-.9" y="-.6" width="33.8" height="33.2"/>
  <path class="st0" d="M23.5,18.8c-.1-2.9-.2-6.4-.2-9.9h-.1c-.7,3.1-1.7,6.5-2.7,9.3l-2.9,9.4h-4.2l-2.6-9.3c-.8-2.8-1.6-6.2-2.2-9.4h0c-.1,3.2-.2,6.9-.4,9.9l-.4,9.1H2.7l1.5-24h7.2l2.3,8c.7,2.8,1.5,5.8,2,8.6h.1c.7-2.8,1.5-5.9,2.3-8.6l2.6-8h7.1l1.3,24h-5.3l-.4-9.2Z"/>
</svg>