{
	"asset":{
		"version":"2.0",
		"generator":""
	},
	"scenes":[{
		"nodes":[0,
		1]
	}],
	"nodes":[{
		"name":"RS Kamera",
		"camera":0,
		"translation":[0.0,
		0.0,
		0.153739795088768],
		"rotation":[0.0,
		0.0,
		0.0,
		-1.0],
		"scale":[1.0,
		1.0,
		1.0]
	},
	{
		"name":"Voronoi-Bruch",
		"mesh":0,
		"translation":[-3.0531133011755684e-18,
		0.0,
		-0.00013816668069921434],
		"rotation":[0.0,
		0.0,
		0.0,
		-1.0],
		"scale":[1.0,
		1.0,
		1.0]
	}],
	"meshes":[{
		"name":"Voronoi-Bruch",
		"primitives":[{
			"attributes":{
				"POSITION":1,
				"NORMAL":2,
				"TEXCOORD_0":3
			},
			"indices":0
		}]
	}],
	"cameras":[{
		"type":"perspective",
		"perspective":{
			"znear":0.009999999776482582,
			"zfar":10000000000.0,
			"aspectRatio":1.7777777910232545,
			"yfov":0.5631968379020691
		}
	}],
	"accessors":[{
		"bufferView":0,
		"type":"SCALAR",
		"count":21954,
		"componentType":5123,
		"byteOffset":0,
		"min":[0],
		"max":[21953]
	},
	{
		"bufferView":1,
		"type":"VEC3",
		"count":21954,
		"componentType":5126,
		"byteOffset":0,
		"min":[-0.0644802674651146,
		-0.04074445366859436,
		-0.01703665778040886],
		"max":[0.06273800879716873,
		0.023694075644016267,
		0.026440385729074479]
	},
	{
		"bufferView":1,
		"type":"VEC3",
		"count":21954,
		"componentType":5126,
		"byteOffset":12,
		"min":[-1.0,
		-1.0,
		-1.0],
		"max":[1.0,
		1.0,
		1.0]
	},
	{
		"bufferView":1,
		"type":"VEC2",
		"count":21954,
		"componentType":5126,
		"byteOffset":24,
		"min":[0.0,
		0.0],
		"max":[1.0,
		1.0]
	}],
	"bufferViews":[{
		"buffer":0,
		"byteOffset":0,
		"byteLength":43908,
		"target":34963
	},
	{
		"buffer":0,
		"byteOffset":43908,
		"byteLength":702528,
		"target":34962,
		"byteStride":32
	}],
	"buffers":[{
		"uri":"data:application/octet-stream;base64,",
		"byteLength":746436
	}]
}